<svg xmlns="http://www.w3.org/2000/svg" viewBox="0 0 148.242 33"><g id="Group_2" data-name="Group 2" transform="translate(-90 -19.468)"><path id="Path_1" data-name="Path 1" d="M218.629,46.983a32.607,32.607,0,0,1-9.831-1.732,12.021,12.021,0,0,0,19.66,0A32.6,32.6,0,0,1,218.629,46.983Z" transform="translate(-5.569 -1.209)" fill="#ffc500"/><path id="Path_2" data-name="Path 2" d="M193.035,22.316H189.1l-4.54,6.74-4.587-6.74h-3.885l6.553,9.455-6.553,9.736h3.838l4.634-6.974,4.634,6.974h3.838l-6.553-9.736Z" transform="translate(-4.036 -0.134)" fill="#1861c5"/><path id="Path_3" data-name="Path 3" d="M171.081,35.788a5.672,5.672,0,0,1-1.825,1.826,6.48,6.48,0,0,1-3.6,1.029,6.356,6.356,0,0,1-4.4-1.779,5.765,5.765,0,0,1-2.013-3.838h16.055l.047-1.03a9.615,9.615,0,0,0-2.808-6.927A9.107,9.107,0,0,0,165.7,22.12a9.206,9.206,0,0,0-6.787,2.9,9.479,9.479,0,0,0-2.808,6.834,9.668,9.668,0,0,0,9.643,9.643,9.618,9.618,0,0,0,5.57-1.779,9.4,9.4,0,0,0,3.229-3.933Zm-9.689-9.174a6.479,6.479,0,0,1,8.613,0,7.268,7.268,0,0,1,2.153,3.65H159.332A5.776,5.776,0,0,1,161.392,26.614Z" transform="translate(-3.099 -0.124)" fill="#1861c5"/><path id="Path_4" data-name="Path 4" d="M208.749,35.788a5.682,5.682,0,0,1-1.825,1.826,6.48,6.48,0,0,1-3.6,1.029,6.354,6.354,0,0,1-4.4-1.779,5.761,5.761,0,0,1-2.013-3.838h16.055l.047-1.03a9.612,9.612,0,0,0-2.809-6.927,9.1,9.1,0,0,0-6.834-2.949,9.206,9.206,0,0,0-6.787,2.9,9.479,9.479,0,0,0-2.808,6.834,9.668,9.668,0,0,0,9.642,9.643,9.619,9.619,0,0,0,5.571-1.779,9.4,9.4,0,0,0,3.229-3.933Zm-9.736-9.174a6.478,6.478,0,0,1,8.612,0,7.255,7.255,0,0,1,2.153,3.65H196.907A6.542,6.542,0,0,1,199.013,26.614Z" transform="translate(-4.864 -0.124)" fill="#1861c5"/><path id="Path_5" data-name="Path 5" d="M240.327,35.788a5.672,5.672,0,0,1-1.825,1.826,6.48,6.48,0,0,1-3.6,1.029,6.354,6.354,0,0,1-4.4-1.779,5.761,5.761,0,0,1-2.013-3.838H244.54l.047-1.03a9.615,9.615,0,0,0-2.808-6.927,9.107,9.107,0,0,0-6.835-2.949,9.206,9.206,0,0,0-6.787,2.9,9.479,9.479,0,0,0-2.808,6.834,9.668,9.668,0,0,0,9.643,9.643,9.618,9.618,0,0,0,5.57-1.779,9.4,9.4,0,0,0,3.229-3.933Zm-9.736-9.174a6.478,6.478,0,0,1,8.612,0,7.263,7.263,0,0,1,2.154,3.65H228.531A6.228,6.228,0,0,1,230.591,26.614Z" transform="translate(-6.345 -0.124)" fill="#1861c5"/><path id="Path_6" data-name="Path 6" d="M225.4,22.069a8.146,8.146,0,0,0-3.23.8,5.5,5.5,0,0,0-1.5,1.264V22.256h-3.183V41.448h3.183V30.494c0-2.809,1.264-4.447,3.792-4.962l1.357-3.417v-.093Z" transform="translate(-5.976 -0.12)" fill="#1861c5"/><path id="Path_7" data-name="Path 7" d="M139.24,48.356h5.149l1.5-4.213h-4.072l-8.847-21.532H128.9Z" transform="translate(-1.823 -0.147)" fill="#1861c5"/><path id="Path_8" data-name="Path 8" d="M151.258,22.267l-7.63,19.1H147.7l7.63-19.1Z" transform="translate(-2.514 -0.131)" fill="#1861c5"/><path id="Path_9" data-name="Path 9" d="M117.1,19.468H91.685A1.678,1.678,0,0,0,90,21.153V46.617A1.678,1.678,0,0,0,91.685,48.3h1.17v2.106a2.059,2.059,0,1,0,4.118,0V48.3h14.792v2.106a2.06,2.06,0,0,0,4.119,0V48.3h1.17a1.678,1.678,0,0,0,1.685-1.685V21.153A1.669,1.669,0,0,0,117.1,19.468ZM104.37,44.978a8.976,8.976,0,0,1-7.3-3.792,23.386,23.386,0,0,0,7.3,1.17,23.609,23.609,0,0,0,7.3-1.17A8.976,8.976,0,0,1,104.37,44.978Zm11.608-17.225a2.059,2.059,0,1,0,0,4.118v5.29a.221.221,0,0,1-.234.234H93.089a.221.221,0,0,1-.234-.234V31.919a2.059,2.059,0,1,0,0-4.118V22.51a.25.25,0,0,1,.234-.234H115.7a.221.221,0,0,1,.234.234v5.243Z" fill="#1861c5"/><path id="Path_10" data-name="Path 10" d="M104.718,46.047a8.976,8.976,0,0,1-7.3-3.792,23.386,23.386,0,0,0,7.3,1.17,23.609,23.609,0,0,0,7.3-1.17A8.976,8.976,0,0,1,104.718,46.047Z" transform="translate(-0.348 -1.068)" fill="#ffc500"/></g></svg>